<?xml version="1.0" encoding="UTF-8"?>
<svg version="1.1" xmlns="http://www.w3.org/2000/svg" width="512" height="512">
<path d="M0 0 C1.30493408 -0.00204437 2.60986816 -0.00408875 3.9543457 -0.00619507 C7.51185713 -0.01130053 11.06907612 0.00214548 14.62654066 0.01933193 C18.35450468 0.03442816 22.08246586 0.0331952 25.81045532 0.03399658 C32.06281495 0.03768051 38.31506421 0.05260922 44.56738281 0.07519531 C52.59783488 0.10414534 60.62819854 0.1144271 68.65869713 0.11887741 C75.56509882 0.12285271 82.47148123 0.13534858 89.37786913 0.14922428 C91.59843305 0.15332445 93.81899629 0.15624929 96.03956223 0.15901947 C100.1670349 0.16481119 104.29442865 0.17948118 108.421875 0.1953125 C109.65511505 0.19643036 110.8883551 0.19754822 112.15896606 0.19869995 C113.27765076 0.2044101 114.39633545 0.21012024 115.54891968 0.21600342 C117.01281159 0.22046541 117.01281159 0.22046541 118.50627708 0.22501755 C120.82275391 0.35644531 120.82275391 0.35644531 122.82275391 1.35644531 C122.82275391 2.01644531 122.82275391 2.67644531 122.82275391 3.35644531 C130.74275391 3.35644531 138.66275391 3.35644531 146.82275391 3.35644531 C147.15275391 2.36644531 147.48275391 1.37644531 147.82275391 0.35644531 C159.27140632 0.263577 170.71996844 0.19259488 182.16892147 0.14919662 C187.4857156 0.12836277 192.80225115 0.10012192 198.11889648 0.0546875 C203.25417672 0.01107989 208.38920894 -0.01272338 213.52466011 -0.02306366 C215.47939518 -0.03042829 217.43411738 -0.04480958 219.38874626 -0.06647491 C222.13649214 -0.09570733 224.88322602 -0.09950245 227.63110352 -0.09765625 C228.43096176 -0.11203735 229.23082001 -0.12641846 230.05491638 -0.14123535 C236.90686852 -0.09174117 242.80450593 1.91262183 248.16259766 6.25097656 C248.68982422 6.88390625 249.21705078 7.51683594 249.76025391 8.16894531 C250.30552734 8.79414062 250.85080078 9.41933594 251.41259766 10.06347656 C255.78445751 17.17229023 255.1068222 25.05861023 255.08345032 33.1280365 C255.08647284 34.53906012 255.09036283 35.95008211 255.09504288 37.36110121 C255.1053185 41.22920745 255.10314219 45.09722095 255.09886229 48.96533477 C255.0963943 53.14060138 255.10541011 57.31584569 255.11289978 61.49110413 C255.12564646 69.66706378 255.12744053 77.84299059 255.12509952 86.0189585 C255.12331627 92.66441745 255.12506613 99.30986642 255.12932396 105.95532417 C255.12991915 106.9012395 255.13051434 107.84715484 255.13112756 108.82173427 C255.13233932 110.74337168 255.13355345 112.66500909 255.13476994 114.5866465 C255.14564522 132.60585099 255.14348296 150.62503676 255.13738509 168.64424229 C255.13221515 185.1280588 255.14347345 201.61181622 255.16248331 218.09562104 C255.18185555 235.02347264 255.19011884 251.95129628 255.18636006 268.87915903 C255.18444719 278.38197783 255.18694405 287.88474632 255.2010746 297.38755608 C255.21298149 305.47676253 255.21440101 313.56588772 255.20228443 321.65509527 C255.19639108 325.78165582 255.19530894 329.90806768 255.20728683 334.03461838 C255.21812961 337.81403342 255.21506155 341.59317532 255.20102515 345.3725775 C255.1971202 347.38346521 255.20793837 349.39436498 255.21932203 351.40522426 C255.16934404 359.74766527 254.3742383 365.5656685 249.63525391 372.60644531 C243.13643886 378.96084224 237.37276236 379.77308605 228.62528992 379.73834229 C226.35734345 379.7075762 224.09032476 379.65753192 221.82275391 379.60644531 C220.26939149 379.58635174 218.71600401 379.56810602 217.16259766 379.55175781 C213.38202411 379.5079821 209.6026688 379.43911505 205.82275391 379.35644531 C205.83846436 380.57638184 205.8541748 381.79631836 205.87036133 383.05322266 C205.9250402 387.61923509 205.95924097 392.18521911 205.98754883 396.75146484 C206.00254951 398.72026451 206.02295674 400.68903124 206.04907227 402.65771484 C206.08584206 405.50268729 206.10256777 408.34721444 206.11572266 411.19238281 C206.13120651 412.05946869 206.14669037 412.92655457 206.16264343 413.81991577 C206.16560174 424.78811825 202.69443469 433.8437539 195.44775391 442.04394531 C184.96658517 451.27735586 175.46855447 452.80797672 161.60342407 452.74412537 C160.18028544 452.74830459 158.75715015 452.75378533 157.33402097 452.76044518 C153.44617169 452.7748414 149.55853545 452.77067342 145.6706748 452.76327837 C141.46878946 452.75853449 137.26694941 452.77106731 133.06507874 452.78129578 C124.84205349 452.79846536 116.61910472 452.7993276 108.3960662 452.79408287 C101.71018672 452.79003645 95.02432979 452.79149034 88.33845139 452.79683113 C86.9094313 452.79795376 86.9094313 452.79795376 85.45154213 452.79909908 C83.51598124 452.8006306 81.58042036 452.80216895 79.64485948 452.80371404 C61.50581156 452.81743247 43.36680681 452.81200605 25.22775988 452.80052883 C8.64658585 452.79059752 -7.93447657 452.80353653 -24.51563339 452.82746302 C-41.55660653 452.85186706 -58.59752772 452.86145866 -75.63851798 452.8548103 C-85.19955988 452.85132093 -94.76051598 452.85353148 -104.32154465 452.87106133 C-112.46072595 452.88579962 -120.59976102 452.8863975 -128.73893951 452.86899041 C-132.88833321 452.86049136 -137.03746585 452.8583039 -141.18684578 452.87364197 C-144.99171468 452.88753198 -148.79609991 452.88267118 -152.60094114 452.86340273 C-154.61569051 452.85789215 -156.63046478 452.87187817 -158.64516675 452.88675684 C-170.78090263 452.78909064 -180.29927803 450.33082489 -189.05224609 441.70410156 C-199.41054251 430.26046894 -199.62531716 416.57722212 -199.50537109 401.84863281 C-199.50230643 400.18905815 -199.5004357 398.52948089 -199.49969482 396.86990356 C-199.49512637 393.41902582 -199.48082456 389.96838596 -199.45849609 386.51757812 C-199.42999339 382.09012463 -199.41925852 377.66285572 -199.414814 373.23531914 C-199.4106672 369.82105667 -199.40085952 366.40683152 -199.3889389 362.99258804 C-199.38323999 361.35866721 -199.37848003 359.72474283 -199.37467194 358.0908165 C-199.36782314 355.81975665 -199.35420321 353.54884482 -199.33837891 351.27783203 C-199.3315509 349.98610077 -199.3247229 348.69436951 -199.31768799 347.36349487 C-199.17724609 344.35644531 -199.17724609 344.35644531 -198.17724609 342.35644531 C-197.51724609 342.35644531 -196.85724609 342.35644531 -196.17724609 342.35644531 C-196.2869433 338.25171873 -196.41761585 334.14792383 -196.55224609 330.04394531 C-196.58318359 328.87669922 -196.61412109 327.70945312 -196.64599609 326.50683594 C-196.68466797 325.38857422 -196.72333984 324.2703125 -196.76318359 323.11816406 C-196.79460449 322.08651123 -196.82602539 321.0548584 -196.85839844 319.99194336 C-197.00399239 317.12801295 -197.00399239 317.12801295 -199.17724609 314.35644531 C-199.42892838 312.34417629 -199.42892838 312.34417629 -199.43121338 310.00083923 C-199.43685303 309.11085236 -199.44249268 308.22086548 -199.44830322 307.3039093 C-199.44425476 306.32987656 -199.4402063 305.35584381 -199.43603516 304.35229492 C-199.43953979 303.32428772 -199.44304443 302.29628052 -199.44665527 301.23712158 C-199.45547978 297.82760931 -199.4496178 294.41830357 -199.44287109 291.00878906 C-199.44421826 288.6380662 -199.44615922 286.26734362 -199.44866943 283.8966217 C-199.45162227 278.91909158 -199.44732057 273.94163313 -199.43798828 268.96411133 C-199.42663714 262.60119076 -199.43312467 256.23843972 -199.44513321 249.87552547 C-199.45238463 244.97429647 -199.45004807 240.07310715 -199.44487762 235.17187691 C-199.44354794 232.82725568 -199.44516488 230.48263079 -199.44983673 228.13801384 C-199.45495101 224.8473658 -199.44712115 221.55698567 -199.43603516 218.26635742 C-199.44008362 217.30649429 -199.44413208 216.34663116 -199.44830322 215.35768127 C-199.37197137 203.04467175 -196.95959518 193.17913854 -188.36474609 184.04394531 C-180.89732781 176.9576618 -173.62659449 175.19863646 -163.55322266 175.24291992 C-162.68457077 175.2427739 -161.81591888 175.24262787 -160.92094421 175.24247742 C-158.05322767 175.24317341 -155.18557628 175.25095116 -152.31787109 175.25878906 C-150.3281864 175.26065436 -148.33850124 175.26207773 -146.34881592 175.26307678 C-141.11438731 175.26689319 -135.87998649 175.27671603 -130.64556885 175.28778076 C-125.30326717 175.2980137 -119.960961 175.30257844 -114.61865234 175.30761719 C-104.13817139 175.31833906 -93.65771105 175.33540499 -83.17724609 175.35644531 C-83.18495026 174.32633835 -83.19265442 173.29623138 -83.20059204 172.23490906 C-83.20682302 170.87006713 -83.21286575 169.50522433 -83.21875 168.14038086 C-83.22431412 167.46301628 -83.22987823 166.7856517 -83.23561096 166.08776093 C-83.29262079 148.44925438 -75.37307311 132.79865267 -63.17724609 120.35644531 C-55.38756592 113.65576465 -46.8462222 108.70541941 -37.00366211 105.78735352 C-36.1005983 105.51889114 -35.19753448 105.25042877 -34.2671051 104.97383118 C-33.57745163 104.77009384 -32.88779816 104.56635651 -32.17724609 104.35644531 C-32.17137985 103.30932373 -32.16551361 102.26220215 -32.1594696 101.18334961 C-32.10215995 91.29644323 -32.02935529 81.40975506 -31.94153118 71.52307129 C-31.89687794 66.44069008 -31.85761066 61.3583881 -31.83081055 56.27587891 C-31.80472728 51.36739871 -31.76428928 46.45922423 -31.71405983 41.55093384 C-31.69742507 39.68197442 -31.68588973 37.81296217 -31.67963219 35.94393921 C-31.66995411 33.31809739 -31.64185113 30.69303173 -31.60961914 28.06738281 C-31.61105423 27.30133224 -31.61248932 26.53528168 -31.6139679 25.74601746 C-31.49300842 18.740132 -29.692152 12.43886706 -24.98974609 7.04394531 C-24.45994141 6.4084375 -23.93013672 5.77292969 -23.38427734 5.11816406 C-16.40518353 -0.45275861 -8.50292476 -0.06416587 0 0 Z M-42.17724609 145.35644531 C-50.04207684 154.65584819 -51.58830854 163.43563447 -51.17724609 175.35644531 C-44.57724609 175.35644531 -37.97724609 175.35644531 -31.17724609 175.35644531 C-31.17724609 163.14644531 -31.17724609 150.93644531 -31.17724609 138.35644531 C-35.47187365 138.35644531 -39.15527407 142.59393554 -42.17724609 145.35644531 Z " fill="#3D342D" transform="translate(228.17724609375,29.6435546875)"/>
<path d="M0 0 C14.35485024 4.73130978 28.65603904 9.58536563 42.890625 14.66699219 C48.04479281 16.50650905 53.20209256 18.33720572 58.359375 20.16796875 C59.99900208 20.75014664 59.99900208 20.75014664 61.67175293 21.34408569 C74.46285296 25.88100782 87.27564606 30.3559148 100.08811188 34.83203506 C119.69735021 41.68300268 139.29692609 48.56036859 158.875 55.5 C160.35444092 56.02436646 160.35444092 56.02436646 161.86376953 56.55932617 C163.75818088 57.23096365 165.65241354 57.90310538 167.54644775 58.57580566 C169.31216296 59.20162371 171.07885488 59.82469436 172.84661865 60.44470215 C176.62901196 61.77534075 180.3840345 63.13395684 184.09863281 64.64453125 C185.30616211 65.12277344 186.51369141 65.60101563 187.7578125 66.09375 C189.26432373 66.72313477 189.26432373 66.72313477 190.80126953 67.36523438 C198.51773389 68.8965126 206.60609753 64.89004858 213.79296875 62.31640625 C214.83130859 61.9494162 215.86964844 61.58242615 216.93945312 61.20431519 C220.35719031 59.99517611 223.77230481 58.77879831 227.1875 57.5625 C229.60502945 56.70591059 232.02275764 55.8498819 234.44067383 54.99438477 C238.83131572 53.44049304 243.2214699 51.885247 247.61083508 50.32775402 C258.68308699 46.39931799 269.76699942 42.50418535 280.85131836 38.60995483 C286.42239847 36.65207588 291.9924563 34.69129391 297.5625 32.73046875 C298.66251343 32.34323135 299.76252686 31.95599396 300.89587402 31.55702209 C303.12980706 30.77059502 305.36373444 29.98415186 307.59765625 29.19769287 C311.0715311 27.97481963 314.54552582 26.75228738 318.01953125 25.52978516 C323.80734736 23.49286349 329.59460738 21.45436851 335.38150024 19.41482544 C337.54179593 18.65367373 339.70225062 17.8929731 341.86288452 17.13278198 C352.7927526 13.28684108 363.7142109 9.4292445 374.55314636 5.33233643 C378.42426966 3.88420537 382.30649369 2.58046098 386.26957703 1.40411377 C387.15878184 1.13951984 388.04798666 0.87492592 388.96413708 0.602314 C389.97188922 0.30416857 389.97188922 0.30416857 391 0 C391.1169664 19.38479478 391.20505323 38.76951763 391.25906086 58.15459251 C391.28480766 67.15607905 391.31989047 76.1573459 391.37719727 85.15869141 C391.42714051 93.00718641 391.45931662 100.85552227 391.47044247 108.70417178 C391.47694284 112.85741869 391.49214612 117.01021043 391.52865028 121.163311 C391.56278295 125.07861111 391.57301859 128.9932719 391.56553841 132.90870667 C391.5669053 134.3397177 391.57673508 135.77075182 391.59602737 137.20163345 C391.73479063 148.03176552 390.01341745 155.6780877 382.75 163.875 C376.46179274 169.7091354 368.64177351 172.1195619 360.21301174 172.13422108 C359.02399334 172.13867892 357.83497495 172.14313676 356.60992569 172.14772969 C355.302267 172.14754533 353.99460832 172.14736097 352.64732361 172.14717102 C351.24515305 172.15047079 349.84298343 172.1541966 348.44081503 172.1583125 C344.58315107 172.16832786 340.72550266 172.17204855 336.86782753 172.17470181 C332.70881434 172.17860627 328.54981344 172.18818455 324.39080811 172.19691467 C314.34413574 172.21667568 304.29746237 172.2267451 294.25077543 172.23564246 C289.51876643 172.2400262 284.78675855 172.24539281 280.05475044 172.25063133 C264.32275977 172.2676437 248.59076979 172.28213746 232.85877132 172.28938007 C228.77637163 172.29128995 224.69397194 172.29321028 220.61157227 172.29516602 C219.08959394 172.29589163 219.08959394 172.29589163 217.53686858 172.2966319 C201.10337571 172.30493064 184.66995567 172.33026491 168.23649459 172.36274669 C151.3618382 172.39582837 134.4872188 172.41382986 117.61252981 172.41702431 C108.13916703 172.41918844 98.66591043 172.42792287 89.19257927 172.45348549 C81.12387201 172.47520767 73.05529674 172.48323546 64.98656356 172.47351871 C60.87175338 172.46897832 56.75721543 172.47084482 52.6424427 172.49028015 C48.870093 172.50794374 45.09821346 172.50688861 41.32585854 172.49138286 C39.32597711 172.48789444 37.32609056 172.50400924 35.32627815 172.52098733 C24.03109851 172.44070495 15.1344597 170.07212952 6.87890625 162.15625 C1.14862036 155.5801215 -0.14541503 148.83590651 -0.15771484 140.32568359 C-0.16279556 139.55778 -0.16787628 138.7898764 -0.17311096 137.998703 C-0.18379286 136.33505764 -0.19242155 134.67139811 -0.19923019 133.00773239 C-0.21103279 130.37719989 -0.23048605 127.74683055 -0.25234985 125.11636353 C-0.31394248 117.63882834 -0.36812431 110.1613131 -0.40136719 102.68359375 C-0.4222569 98.107697 -0.45750528 93.53210314 -0.50212479 88.95637894 C-0.51632163 87.21084774 -0.5250155 85.46526303 -0.52817917 83.71967697 C-0.53306237 81.28463515 -0.55614873 78.8504054 -0.58349609 76.41552734 C-0.58048996 75.69029373 -0.57748383 74.96506012 -0.5743866 74.21784973 C-0.57656306 72.00515821 -0.57656306 72.00515821 -1 69 C-1.99 68.34 -2.98 67.68 -4 67 C-4.38818359 64.6015625 -4.38818359 64.6015625 -4.3984375 61.625 C-4.40230469 60.55765625 -4.40617187 59.4903125 -4.41015625 58.390625 C-4.39275391 56.71226562 -4.39275391 56.71226562 -4.375 55 C-4.38660156 53.88109375 -4.39820312 52.7621875 -4.41015625 51.609375 C-4.40628906 50.54203125 -4.40242188 49.4746875 -4.3984375 48.375 C-4.39505371 47.39273438 -4.39166992 46.41046875 -4.38818359 45.3984375 C-4.26008301 44.60695313 -4.13198242 43.81546875 -4 43 C-3.01 42.34 -2.02 41.68 -1 41 C-0.5267707 39.15274772 -0.5267707 39.15274772 -0.56762695 37.00927734 C-0.54783279 36.18857758 -0.52803864 35.36787781 -0.50764465 34.52230835 C-0.50125473 33.63580597 -0.49486481 32.74930359 -0.48828125 31.8359375 C-0.46135445 30.47512558 -0.46135445 30.47512558 -0.43388367 29.08682251 C-0.37960573 26.18292928 -0.34582927 23.279202 -0.3125 20.375 C-0.27934233 18.40883098 -0.24485413 16.44268391 -0.20898438 14.4765625 C-0.12386935 9.65116112 -0.05714194 4.82581045 0 0 Z " fill="#89C5DC" transform="translate(36,304)"/>
<path d="M0 0 C1.43195273 -0.00461452 2.86390072 -0.01097113 4.29583889 -0.01890898 C8.21267488 -0.03555021 12.12911918 -0.02737986 16.04595625 -0.0149641 C20.27713921 -0.00589441 24.50825596 -0.0198929 28.73942566 -0.03088379 C37.02143251 -0.0486536 45.3032942 -0.04483576 53.5853067 -0.03323323 C60.31795157 -0.02419251 67.05055583 -0.02297767 73.78320503 -0.02732849 C74.74214874 -0.02794142 75.70109246 -0.02855436 76.68909507 -0.02918586 C78.63730296 -0.03046479 80.58551084 -0.03176164 82.53371871 -0.03307623 C100.79480268 -0.04447768 119.05580629 -0.03137546 137.31687707 -0.00987476 C152.97700311 0.00799296 168.63701051 0.00489395 184.2971344 -0.0135498 C202.49219323 -0.03496912 220.68718164 -0.04337608 238.88225132 -0.03110075 C240.82351974 -0.02982659 242.76478816 -0.0285691 244.70605659 -0.02732849 C245.66114085 -0.02671139 246.6162251 -0.02609429 247.6002513 -0.02545848 C254.32229818 -0.02200856 261.0443003 -0.02782629 267.76634026 -0.0372467 C275.96197081 -0.04847998 284.15744818 -0.04539885 292.35306125 -0.02412373 C296.53257332 -0.01363073 300.71183023 -0.00946144 304.89134026 -0.02272034 C308.72144123 -0.03468675 312.55105182 -0.0280124 316.38110865 -0.00681013 C318.41427762 -0.00026344 320.44748095 -0.01324216 322.48061365 -0.02703905 C331.14427773 0.04684755 338.22182391 1.27017504 345.3974762 6.33215332 C345.98786682 6.94703613 346.57825745 7.56191895 347.1865387 8.19543457 C347.79239807 8.79742676 348.39825745 9.39941895 349.0224762 10.01965332 C355.12763305 18.51088676 355.35494981 26.69116163 355.2021637 36.82434082 C355.19468916 38.29120609 355.18900197 39.75808144 355.18501282 41.22496033 C355.16985154 45.05726433 355.13065446 48.88894716 355.0861969 52.7210083 C355.04503673 56.64273683 355.02695786 60.56456722 355.0068512 64.4864502 C354.96414868 72.16055933 354.89601588 79.83415941 354.8115387 87.50793457 C342.0718894 92.3569 329.33763747 97.14061903 316.36808777 101.3404541 C301.53452835 106.15488393 286.81581835 111.27898596 272.1240387 116.50793457 C271.13609314 116.85953644 270.14814758 117.21113831 269.13026428 117.57339478 C267.09666307 118.29725265 265.06306324 119.0211144 263.02946472 119.74497986 C261.9997757 120.11148148 260.97008667 120.47798309 259.90919495 120.85559082 C258.8654068 121.2272084 257.82161865 121.59882599 256.74620056 121.98170471 C242.36217636 127.09773378 227.95033489 132.13498349 213.54045105 137.1776123 C211.25883908 137.97607626 208.97739912 138.77503194 206.69613647 139.57449341 C204.46443204 140.35585125 202.23200738 141.13515527 199.99884033 141.912323 C194.67986795 143.76957055 189.37623406 145.65726595 184.10184097 147.6373167 C182.18201591 148.35752855 180.25981152 149.07101254 178.33686829 149.78285217 C175.91371055 150.68313181 173.49556776 151.59706864 171.08357239 152.52684021 C160.88300983 156.29377308 154.6992001 155.10326411 144.6552887 151.50793457 C143.77746735 151.20092117 142.899646 150.89390778 141.995224 150.57759094 C139.0979024 149.56204127 136.20477616 148.53505602 133.3115387 147.50793457 C131.24683121 146.78160195 129.18188493 146.05594784 127.11671448 145.33093262 C121.73156788 143.43783225 116.35004057 141.53467657 110.96986389 139.62750244 C107.95489826 138.55875288 104.93946615 137.49133224 101.92384338 136.42443848 C94.21228741 133.695753 86.50135052 130.96534535 78.79298401 128.22766113 C67.4417452 124.19795755 56.08144401 120.19503006 44.7099762 116.22277832 C44.06660938 115.99802826 43.42324257 115.7732782 42.76037979 115.54171753 C39.49648687 114.40162544 36.23249458 113.26181805 32.96846008 112.12213135 C9.86503476 104.05511351 -13.19603374 95.88609063 -36.1884613 87.50793457 C-36.30481909 79.07539904 -36.39340915 70.64320444 -36.44752216 62.21006203 C-36.47350689 58.29327462 -36.50869734 54.37704041 -36.56565857 50.46057129 C-36.62038115 46.6738995 -36.64996529 42.88775644 -36.66284752 39.10071945 C-36.67201598 37.66311709 -36.68991852 36.22554044 -36.71711159 34.78816605 C-36.89456439 25.01068225 -36.12359301 16.8928983 -29.2567749 9.400177 C-20.62817331 1.01392786 -11.66011835 -0.07899184 0 0 Z " fill="#D6DF56" transform="translate(72.18846130371094,210.4920654296875)"/>
<path d="M0 0 C90.09 0 180.18 0 273 0 C273.20165675 74.25001363 273.20165675 74.25001363 273.24414062 105.23242188 C273.25393007 112.32413795 273.2640325 119.41585348 273.2746582 126.50756836 C273.27597695 127.39640581 273.27729569 128.28524326 273.2786544 129.20101517 C273.3004041 143.55277548 273.33982488 157.90443567 273.38576398 172.2561366 C273.43251294 186.98361578 273.46029209 201.71104252 273.47044247 216.43859285 C273.47730488 225.52716209 273.49898307 234.61544849 273.53958233 243.70393067 C273.56600145 249.93529136 273.5740029 256.16650571 273.56750689 262.39791835 C273.56430265 265.99382775 273.56923224 269.58924272 273.59602737 273.18506432 C273.62487294 277.0845425 273.61494137 280.98337655 273.60127258 284.88294983 C273.61583679 286.01817158 273.630401 287.15339334 273.64540654 288.32301575 C273.5797753 295.23542878 272.73296873 298.86754392 268 304 C263.45857996 307.07071245 259.82835072 307.35794021 254.4140625 307.29296875 C253.12967285 307.28547607 251.8452832 307.2779834 250.52197266 307.27026367 C248.90597168 307.24295166 247.2899707 307.21563965 245.625 307.1875 C240.46875 307.125625 235.3125 307.06375 230 307 C230 290.17 230 273.34 230 256 C234.62 255.67 239.24 255.34 244 255 C243.67 253.68 243.34 252.36 243 251 C238.71 250.67 234.42 250.34 230 250 C230 238.12 230 226.24 230 214 C234.62 213.67 239.24 213.34 244 213 C244 212.01 244 211.02 244 210 C239.38 209.67 234.76 209.34 230 209 C230 196.46 230 183.92 230 171 C234.62 170.67 239.24 170.34 244 170 C243.67 168.68 243.34 167.36 243 166 C238.71 165.67 234.42 165.34 230 165 C229.95101562 162.90398437 229.90203125 160.80796875 229.8515625 158.6484375 C229.79744561 156.60295905 229.74018048 154.55759106 229.68261719 152.51220703 C229.64449762 151.09822937 229.60961596 149.68416035 229.578125 148.27001953 C229.53210142 146.2291616 229.47417333 144.1889234 229.4140625 142.1484375 C229.3826416 140.92302246 229.3512207 139.69760742 229.31884766 138.43505859 C229.08439796 134.49588446 229.08439796 134.49588446 227 129 C232.28 128.67 237.56 128.34 243 128 C243.33 126.68 243.66 125.36 244 124 C243.08504761 123.99383667 243.08504761 123.99383667 242.15161133 123.98754883 C239.37094208 123.95452425 236.59243843 123.88387432 233.8125 123.8125 C232.37293945 123.80379883 232.37293945 123.80379883 230.90429688 123.79492188 C223.7110696 123.57091134 223.7110696 123.57091134 220.02734375 120.61328125 C219.35832031 119.75089844 218.68929687 118.88851562 218 118 C210.61857574 111.60050833 202.51121268 109.550179 192.90014648 109.56762695 C192.04051804 109.5574353 191.18088959 109.54724365 190.29521179 109.53674316 C187.48710426 109.50683264 184.67933904 109.49738109 181.87109375 109.48828125 C179.91096381 109.47141826 177.95084457 109.45326586 175.99073792 109.43388367 C170.85671332 109.38655349 165.72273216 109.35663449 160.58856201 109.33044434 C155.33955309 109.30055283 150.09069355 109.25405214 144.84179688 109.20898438 C134.56125924 109.12314447 124.28073664 109.05725051 114 109 C113.67 101.41 113.34 93.82 113 86 C156.23 85.67 199.46 85.34 244 85 C243.67 83.68 243.34 82.36 243 81 C242.32708168 81.00775137 241.65416336 81.01550274 240.96085358 81.023489 C224.56789721 81.20748606 208.17644962 81.31379087 191.78250885 81.33421898 C183.85423373 81.34596103 175.92769776 81.38374586 168 81.48339844 C161.08794151 81.57021757 154.17765968 81.60760455 147.26505804 81.58627188 C143.60577871 81.57668907 139.95032514 81.59141849 136.29170227 81.66541672 C114.01711632 82.0924403 114.01711632 82.0924403 109.03256226 78.63553619 C105.67778518 74.91426016 104.44854313 70.75676366 103 66 C96.65516371 56.11561566 87.56250141 48.9991661 77 44 C77 43.67 77 43.34 77 43 C159.665 42.505 159.665 42.505 244 42 C244 41.01 244 40.02 244 39 C123.22 38.505 123.22 38.505 0 38 C0 25.46 0 12.92 0 0 Z " fill="#DAC6AA" transform="translate(203,96)"/>
<path d="M0 0 C2.43017578 -0.34057617 2.43017578 -0.34057617 5.4453125 -0.29296875 C6.52167969 -0.28330078 7.59804688 -0.27363281 8.70703125 -0.26367188 C10.39892578 -0.2259668 10.39892578 -0.2259668 12.125 -0.1875 C13.26066406 -0.17396484 14.39632812 -0.16042969 15.56640625 -0.14648438 C18.37807387 -0.11104319 21.18880417 -0.06163517 24 0 C24.33 0.66 24.66 1.32 25 2 C26.6082666 2.00546844 26.6082666 2.00546844 28.24902344 2.01104736 C38.37141909 2.04804747 48.49351194 2.10587506 58.61567688 2.18390274 C63.81915517 2.22335006 69.02246493 2.25555208 74.22607422 2.27099609 C79.251322 2.28618064 84.27610635 2.3206584 89.30114746 2.36830902 C91.214762 2.38310423 93.12844271 2.39103994 95.04211426 2.39188385 C97.73039703 2.39426087 100.41740669 2.42139899 103.10546875 2.45410156 C104.28259682 2.44655602 104.28259682 2.44655602 105.48350525 2.43885803 C111.05178207 2.54312101 115.33853202 3.90553377 120 7 C133.06122327 21.06593276 125 31.78990629 125 57 C35.24 57 -54.52 57 -147 57 C-147 14 -147 14 -143 8 C-137.46919158 2.67594008 -131.18483373 3.44481457 -123.95800781 3.50170898 C-122.64361221 3.49619019 -121.32921661 3.49067139 -119.97499084 3.48498535 C-117.12497333 3.47306366 -114.27532441 3.47350099 -111.4253006 3.48357964 C-106.9210742 3.49916537 -102.41722525 3.48544733 -97.9130249 3.46754456 C-89.17149244 3.43676578 -80.43007609 3.43522297 -71.68849945 3.43719482 C-60.54681623 3.43858919 -49.4052213 3.42832038 -38.26360393 3.3886171 C-33.78321063 3.3736539 -29.30315202 3.37397426 -24.82275343 3.38609493 C-22.71051663 3.38966246 -20.59841978 3.38650418 -18.4861908 3.38031006 C-15.90729012 3.37288044 -13.32832781 3.37630811 -10.74946594 3.39228821 C-9.61947678 3.3855307 -8.48948761 3.37877319 -7.32525635 3.37181091 C-5.84640646 3.37269038 -5.84640646 3.37269038 -4.33768082 3.37358761 C-3.56624615 3.2503037 -2.79481148 3.12701979 -2 3 C-1.34 2.01 -0.68 1.02 0 0 Z " fill="#F06B79" transform="translate(351,33)"/>
<path d="M0 0 C79.86 0 159.72 0 242 0 C242 12.21 242 24.42 242 37 C162.14 37 82.28 37 0 37 C0 24.79 0 12.58 0 0 Z " fill="#FCE8CB" transform="translate(204,96)"/>
<path d="M0 0 C53.79 0 107.58 0 163 0 C163 11.88 163 23.76 163 36 C119.44 36 75.88 36 31 36 C27.04 29.07 27.04 29.07 23 22 C17.95977405 14.85967991 12.71438676 9.90349181 5.63671875 4.91015625 C3 3 3 3 0 0 Z " fill="#FBE7CA" transform="translate(283,140)"/>
<path d="M0 0 C0.1169664 19.38479478 0.20505323 38.76951763 0.25906086 58.15459251 C0.28480766 67.15607905 0.31989047 76.1573459 0.37719727 85.15869141 C0.42714051 93.00718641 0.45931662 100.85552227 0.47044247 108.70417178 C0.47694284 112.85741869 0.49214612 117.01021043 0.52865028 121.163311 C0.56278295 125.07861111 0.57301859 128.9932719 0.56553841 132.90870667 C0.5669053 134.3397177 0.57673508 135.77075182 0.59602737 137.20163345 C0.73479063 148.03176552 -0.98658255 155.6780877 -8.25 163.875 C-14.54936677 169.71948908 -22.37487119 172.12614726 -30.81771469 172.12304783 C-32.01351678 172.12503888 -33.20931886 172.12702993 -34.44135737 172.12908131 C-35.75651938 172.12616847 -37.07168138 172.12325563 -38.42669678 172.12025452 C-39.83670612 172.12069049 -41.24671538 172.12156588 -42.65672421 172.12284368 C-46.53563382 172.12508348 -50.41451589 172.12107437 -54.29342198 172.11606562 C-58.47471317 172.11175394 -62.65600275 172.11320806 -66.83729553 172.1139679 C-74.08311075 172.11449267 -81.32891697 172.11135067 -88.57472992 172.10573006 C-99.05100609 172.09760884 -109.5272779 172.0949992 -120.00355688 172.09374207 C-136.99993231 172.09155253 -153.99630295 172.08489509 -170.99267578 172.07543945 C-187.50471981 172.0662628 -204.01676253 172.0591832 -220.52880859 172.05493164 C-221.54632319 172.05466892 -222.56383779 172.05440619 -223.61218616 172.05413551 C-228.71667192 172.05283049 -233.82115768 172.05156678 -238.92564344 172.05032361 C-281.28376562 172.03995405 -323.64188256 172.02233839 -366 172 C-366 171.67 -366 171.34 -366 171 C-365.320339 171.00130151 -364.64067801 171.00260303 -363.94042122 171.00394398 C-323.64882608 171.07995774 -283.35744069 171.10908284 -243.06577999 171.07740569 C-238.22679625 171.07364182 -233.38781231 171.07026929 -228.54882812 171.06713867 C-227.58548266 171.06650885 -226.62213719 171.06587903 -225.62959944 171.06523012 C-210.0357799 171.05596815 -194.44215912 171.07840143 -178.84838118 171.11256976 C-162.84501278 171.14692923 -146.84190537 171.14717742 -130.83852947 171.11582941 C-120.96518949 171.09756219 -111.09260649 171.10582978 -101.21933727 171.14815276 C-94.44676037 171.17463416 -87.67471928 171.16794999 -80.90217121 171.13534261 C-76.99571355 171.11750901 -73.09067612 171.11414794 -69.18431282 171.15022469 C-65.60294267 171.18297622 -62.02414363 171.17379459 -58.44288836 171.13215785 C-56.54344546 171.12072734 -54.64389247 171.15336884 -52.74472916 171.18790489 C-44.73690073 171.0382253 -40.70149673 169.07904268 -35.01527649 163.43478513 C-28.00816189 154.96903936 -27.26862967 146.475222 -27.34057617 135.80786133 C-27.33210414 134.4170794 -27.32145147 133.02630934 -27.30880737 131.63555908 C-27.28087377 127.89442593 -27.28309434 124.15387027 -27.29110122 120.41266465 C-27.29424431 116.49016923 -27.26913954 112.56785202 -27.24714661 108.64543152 C-27.20981926 101.233203 -27.19756535 93.82115791 -27.1945222 86.40884465 C-27.18981904 77.96368061 -27.15685554 69.51869892 -27.12162435 61.07361567 C-27.04983845 43.71575712 -27.01319692 26.35800001 -27 9 C-22.87685942 7.49485354 -18.75119298 5.99675628 -14.625 4.5 C-13.449375 4.07074219 -12.27375 3.64148438 -11.0625 3.19921875 C-9.94101562 2.79316406 -8.81953125 2.38710938 -7.6640625 1.96875 C-6.62717285 1.59169922 -5.5902832 1.21464844 -4.52197266 0.82617188 C-2 0 -2 0 0 0 Z " fill="#67A4B7" transform="translate(427,304)"/>
<path d="M0 0 C1.44668047 -0.00780451 2.89335647 -0.01647993 4.34002686 -0.02597046 C7.35557985 -0.04078454 10.37066418 -0.04039561 13.38623047 -0.02978516 C16.44509708 -0.02052399 19.50237347 -0.03435409 22.56103516 -0.07080078 C43.09190399 -0.3135257 61.17151819 -0.43770667 77.734375 13.6015625 C78.88486328 14.56835938 78.88486328 14.56835938 80.05859375 15.5546875 C89.01380831 23.76490118 97.25908638 36.48160439 97.84130859 48.87841797 C97.97437013 54.46593793 97.85259776 60.00568542 97.734375 65.6015625 C91.794375 65.6015625 85.854375 65.6015625 79.734375 65.6015625 C79.63125 63.6628125 79.528125 61.7240625 79.421875 59.7265625 C78.59581148 49.43425761 76.1436879 41.76163784 69.734375 33.6015625 C69.24324219 32.9725 68.75210938 32.3434375 68.24609375 31.6953125 C62.33662012 25.00866244 53.45710843 21.04825926 44.734375 19.6015625 C42.97816783 19.50468951 41.21903141 19.45376926 39.46020508 19.44042969 C38.4317598 19.43082214 37.40331451 19.4212146 36.34370422 19.41131592 C35.24157089 19.40706604 34.13943756 19.40281616 33.00390625 19.3984375 C31.85830734 19.39273743 30.71270844 19.38703735 29.53239441 19.38116455 C27.10908935 19.37172729 24.68577153 19.36518564 22.26245117 19.36132812 C18.57773082 19.3516436 14.89357343 19.32061581 11.20898438 19.2890625 C8.84896163 19.28252973 6.48893491 19.27728034 4.12890625 19.2734375 C3.03689407 19.2610907 1.9448819 19.2487439 0.81977844 19.23602295 C-11.1481437 19.27041933 -21.48279545 22.50770688 -30.49609375 30.60546875 C-40.66560571 41.27105447 -41.92570738 51.43832835 -42.265625 65.6015625 C-48.535625 65.6015625 -54.805625 65.6015625 -61.265625 65.6015625 C-61.93299921 47.18203431 -59.42738728 33.83552728 -47.2734375 19.203125 C-34.24543756 5.22069283 -18.7184008 -0.04278566 0 0 Z " fill="#86786E" transform="translate(213.265625,139.3984375)"/>
<path d="M0 0 C42.9 0 85.8 0 130 0 C130 11.88 130 23.76 130 36 C124.9571875 36.1546875 124.9571875 36.1546875 119.8125 36.3125 C118.76167236 36.35802002 117.71084473 36.40354004 116.62817383 36.45043945 C109.69658008 36.55345959 109.69658008 36.55345959 105.99609375 33.61328125 C105.33738281 32.75089844 104.67867188 31.88851562 104 31 C96.66143921 25.32929394 89.0072718 23.55109386 79.90014648 23.56762695 C79.04051804 23.5574353 78.18088959 23.54724365 77.29521179 23.53674316 C74.48710426 23.50683264 71.67933904 23.49738109 68.87109375 23.48828125 C66.91096381 23.47141826 64.95084457 23.45326586 62.99073792 23.43388367 C57.85671332 23.38655349 52.72273216 23.35663449 47.58856201 23.33044434 C42.33955309 23.30055283 37.09069355 23.25405214 31.84179688 23.20898438 C21.56125924 23.12314447 11.28073664 23.05725051 1 23 C0.67 15.41 0.34 7.82 0 0 Z " fill="#FAE6C9" transform="translate(316,182)"/>
<path d="M0 0 C1.00872665 -0.00960754 2.01745331 -0.01921509 3.05674744 -0.02911377 C4.15765213 -0.03336365 5.25855682 -0.03761353 6.39282227 -0.04199219 C7.52188492 -0.04769226 8.65094757 -0.05339233 9.81422424 -0.05926514 C12.21435606 -0.06873764 14.61450101 -0.075258 17.01464844 -0.07910156 C20.66242829 -0.08874348 24.30962949 -0.11971948 27.95727539 -0.15136719 C30.28995434 -0.15790341 32.62263732 -0.16315144 34.95532227 -0.16699219 C36.03800888 -0.17933899 37.1206955 -0.19168579 38.2361908 -0.20440674 C46.90238035 -0.17932894 55.04336697 1.05875996 62.27172852 6.16113281 C63.35454102 6.90363281 63.35454102 6.90363281 64.45922852 7.66113281 C66.27172852 9.16113281 66.27172852 9.16113281 68.27172852 12.16113281 C52.10172852 12.49113281 35.93172852 12.82113281 19.27172852 13.16113281 C19.27172852 14.48113281 19.27172852 15.80113281 19.27172852 17.16113281 C37.09172852 17.49113281 54.91172852 17.82113281 73.27172852 18.16113281 C76.27172852 25.16113281 76.27172852 25.16113281 76.27172852 41.16113281 C49.21172852 41.16113281 22.15172852 41.16113281 -5.72827148 41.16113281 C-5.72827148 0.04387819 -5.72827148 0.04387819 0 0 Z " fill="#F9E5C8" transform="translate(209.728271484375,163.8388671875)"/>
<path d="M0 0 C44.03550938 -0.09156717 88.07100867 -0.16204465 132.1065945 -0.20426132 C137.30608919 -0.20926411 142.50558371 -0.2144414 147.70507812 -0.21972656 C149.25775846 -0.22130043 149.25775846 -0.22130043 150.84180607 -0.22290608 C167.59954942 -0.24030852 184.35723784 -0.27184535 201.11494862 -0.30861118 C218.31152219 -0.34602504 235.50806701 -0.3682368 252.70467961 -0.37635398 C263.31483852 -0.38184082 273.92484219 -0.39916694 284.53495331 -0.43166587 C291.81195403 -0.45281922 299.08887455 -0.45919817 306.36590378 -0.45400551 C310.56360144 -0.45144502 314.76102792 -0.45535392 318.95867729 -0.4768219 C322.80575671 -0.49635286 326.65238376 -0.49722796 330.49948443 -0.48359558 C331.88728008 -0.48191187 333.27510448 -0.48693076 334.66284393 -0.49953273 C344.03102119 -0.57962101 351.7885321 0.32363216 359.5859375 5.82421875 C360.17632812 6.43910156 360.76671875 7.05398437 361.375 7.6875 C361.98085938 8.28949219 362.58671875 8.89148438 363.2109375 9.51171875 C369.31609435 18.00295219 369.54341112 26.18322706 369.390625 36.31640625 C369.38315046 37.78327152 369.37746327 39.25014687 369.37347412 40.71702576 C369.35831285 44.54932976 369.31911576 48.38101259 369.2746582 52.21307373 C369.23349804 56.13480226 369.21541916 60.05663265 369.1953125 63.97851562 C369.15260999 71.65262476 369.08447718 79.32622484 369 87 C365.06552291 88.50801568 361.12695023 90.00502914 357.1875 91.5 C356.06794922 91.92925781 354.94839844 92.35851562 353.79492188 92.80078125 C352.72177734 93.20683594 351.64863281 93.61289062 350.54296875 94.03125 C349.55321045 94.40830078 348.56345215 94.78535156 347.54370117 95.17382812 C345 96 345 96 342 96 C341.99120064 94.6393618 341.99120064 94.6393618 341.98222351 93.25123596 C341.92415671 84.67435642 341.85200031 76.09773343 341.76428509 67.52110386 C341.71968678 63.11247675 341.68040786 58.70393981 341.65356445 54.29516602 C341.62742575 50.03504318 341.58694985 45.7752693 341.53681374 41.51536369 C341.52021612 39.89564311 341.50865782 38.27586228 341.50238609 36.6560688 C341.50015528 20.8034512 341.50015528 20.8034512 333.4375 7.5 C332.65246094 6.6646875 331.86742187 5.829375 331.05859375 4.96875 C327.84607899 1.89643986 325.99441625 1.87297663 321.64702415 1.8613348 C320.5039717 1.85586036 319.36091925 1.85038591 318.18322885 1.84474558 C316.91671444 1.84376747 315.65020003 1.84278936 314.3453064 1.84178162 C312.99476906 1.83721848 311.64423315 1.83221882 310.29369891 1.82681805 C306.56990607 1.81319927 302.84612239 1.8058078 299.12231112 1.79939139 C295.11139122 1.79140382 291.10049049 1.77770042 287.08958435 1.76467896 C280.13622002 1.74289283 273.18285378 1.72475617 266.22947311 1.70907402 C256.17595967 1.68639481 246.12246743 1.65824931 236.06897195 1.62875474 C219.75920679 1.58105489 203.44943298 1.5377972 187.13964844 1.49731445 C171.29296189 1.45797169 155.44628305 1.41654841 139.59960938 1.37231445 C138.62338727 1.36959018 137.64716516 1.36686591 136.64136057 1.36405908 C131.74411044 1.35037981 126.84686043 1.33665949 121.94961047 1.32291877 C81.29975634 1.2089164 40.64988562 1.10211538 0 1 C0 0.67 0 0.34 0 0 Z " fill="#B9C23C" transform="translate(58,211)"/>
<path d="M0 0 C11.0747694 -0.09283355 22.14944565 -0.16383284 33.22452545 -0.20724869 C38.36759726 -0.22809011 43.51040212 -0.25634483 48.65332031 -0.30175781 C53.62001659 -0.3453384 58.58645669 -0.36916301 63.55332947 -0.37950897 C65.44469737 -0.38687844 67.33605185 -0.40126928 69.22731018 -0.42292023 C71.88426604 -0.45211682 74.5401742 -0.45594926 77.19726562 -0.45410156 C78.36036758 -0.47567322 78.36036758 -0.47567322 79.54696655 -0.49768066 C85.10646283 -0.45606733 89.35051788 0.91048546 94 4 C107.06122327 18.06593276 99 28.78990629 99 54 C9.24 54 -80.52 54 -173 54 C-173 53.67 -173 53.34 -173 53 C-93.14 53 -13.28 53 69 53 C70.7701596 27.65141141 70.7701596 27.65141141 64 5 C58.39301871 0.73057275 51.46181107 1.52305326 44.7265625 1.48828125 C43.44768158 1.47033005 42.16880066 1.45237885 40.85116577 1.43388367 C37.46785039 1.38898589 34.08489441 1.3566372 30.70141602 1.33044434 C27.24221797 1.30055003 23.78324651 1.25405045 20.32421875 1.20898438 C13.54958408 1.12407667 6.77493424 1.05571728 0 1 C0 0.67 0 0.34 0 0 Z " fill="#CF505D" transform="translate(377,36)"/>
<path d="M0 0 C3.22075123 2.35751846 4.34730487 5.74748118 5.92578125 9.296875 C9.30047603 16.39031728 12.04722672 21.67725964 19.73828125 24.515625 C21.50359343 25.05725487 23.2824991 25.5573296 25.07421875 26.00390625 C27.11328125 26.546875 27.11328125 26.546875 28.11328125 27.546875 C28.15391957 29.21304615 28.15600225 30.88075595 28.11328125 32.546875 C26.84484375 33.18302734 26.84484375 33.18302734 25.55078125 33.83203125 C14.68701435 39.44909255 6.39704425 44.58235278 2.43359375 56.609375 C1.95252136 58.24370312 1.52647961 59.89408156 1.11328125 61.546875 C-0.53671875 61.546875 -2.18671875 61.546875 -3.88671875 61.546875 C-4.17804688 60.78503906 -4.469375 60.02320313 -4.76953125 59.23828125 C-9.93713617 46.10186325 -9.93713617 46.10186325 -19.88671875 36.546875 C-23.1809448 35.37942971 -26.50204345 34.41440343 -29.88671875 33.546875 C-30.51171875 31.171875 -30.51171875 31.171875 -30.88671875 28.546875 C-28.53762939 26.19778564 -26.91413216 25.82968609 -23.76171875 24.859375 C-17.23402439 22.53233324 -12.13737971 19.40323138 -8.578125 13.3046875 C-7.03666754 9.9507471 -5.89099513 6.5601793 -4.76171875 3.046875 C-3.73130475 0.10283499 -3.13583653 -0.75312016 0 0 Z " fill="#3B322A" transform="translate(96.88671875,49.453125)"/>
<path d="M0 0 C3.1427844 1.41335845 3.6440299 3.64089399 4.99609375 6.73828125 C7.3915392 12.21644479 9.80261501 15.4029151 15.296875 17.97265625 C15.98136719 18.2046875 16.66585937 18.43671875 17.37109375 18.67578125 C18.58796875 19.08828125 19.80484375 19.50078125 21.05859375 19.92578125 C21.44921875 22.1796875 21.44921875 22.1796875 21.05859375 24.92578125 C18.95854585 26.50081717 17.11005675 27.66819607 14.80859375 28.86328125 C8.40757935 32.32694126 5.01106706 36.04459797 2.30859375 42.80078125 C1.89609375 43.83203125 1.48359375 44.86328125 1.05859375 45.92578125 C-1.21875 45.85546875 -1.21875 45.85546875 -3.94140625 44.92578125 C-5.37135993 42.60099169 -6.45007689 40.53533893 -7.50390625 38.05078125 C-9.82502606 32.71920674 -11.62722519 29.39539074 -17.08203125 26.9765625 C-17.778125 26.73292969 -18.47421875 26.48929688 -19.19140625 26.23828125 C-21.04765625 25.58859375 -21.04765625 25.58859375 -22.94140625 24.92578125 C-22.8046875 22.609375 -22.8046875 22.609375 -21.94140625 19.92578125 C-19.359375 18.3359375 -19.359375 18.3359375 -16.12890625 16.98828125 C-11.15006508 14.67309058 -8.26946531 13.11100371 -5.94140625 7.92578125 C-5.25460683 5.59829431 -4.58379582 3.26591469 -3.94140625 0.92578125 C-1.94140625 -0.07421875 -1.94140625 -0.07421875 0 0 Z " fill="#3A3129" transform="translate(52.94140625,83.07421875)"/>
<path d="M0 0 C2.2890625 0.10546875 2.2890625 0.10546875 5 1 C6.7734375 3.80078125 6.7734375 3.80078125 8.375 7.3125 C11.28811914 13.10074108 12.98541728 15.66099561 19 18 C19.969375 18.4125 20.93875 18.825 21.9375 19.25 C22.618125 19.4975 23.29875 19.745 24 20 C24 21.65 24 23.3 24 25 C23.27554688 25.35191406 22.55109375 25.70382813 21.8046875 26.06640625 C13.81643156 30.14574228 8.40124773 33.91625018 5.125 42.4375 C4.75375 43.613125 4.3825 44.78875 4 46 C1.625 45.79296875 1.625 45.79296875 -1 45 C-2.1875 42.92578125 -2.1875 42.92578125 -3 40.3125 C-4.97602763 34.83741948 -6.74968935 30.57792859 -12.28515625 27.890625 C-13.87598798 27.23513174 -15.48421422 26.61972684 -17.109375 26.0546875 C-19 25 -19 25 -19.765625 22.8828125 C-19.84296875 22.26148437 -19.9203125 21.64015625 -20 21 C-17.72491902 19.57807439 -15.48070482 18.21417542 -13.02734375 17.12109375 C-6.41878895 14.16886086 -3.82790321 10.34893188 -1.25 3.625 C-0.8375 2.42875 -0.425 1.2325 0 0 Z " fill="#3B322A" transform="translate(50,30)"/>
<path d="M0 0 C4.12593192 2.87855716 7.06537651 6.00862953 8.6875 10.875 C9.2689719 16.80601336 8.21431767 21.12621452 4.6875 25.875 C1.00241884 29.3188456 -2.75907984 31.16834203 -7.8125 31.5 C-12.86470167 31.18533 -16.55307652 29.1931766 -20.3125 25.875 C-24.15404354 20.8329741 -24.12120306 14.97207585 -23.3125 8.875 C-18.6210948 -1.04912638 -9.90326305 -3.36337236 0 0 Z " fill="#3C332A" transform="translate(239.3125,292.125)"/>
<path d="M0 0 C3.96 0 7.92 0 12 0 C12.07438973 5.30188966 12.12871511 10.60347268 12.16479492 15.90576172 C12.1798424 17.70789892 12.2002853 19.50999973 12.22631836 21.31201172 C12.26288021 23.90862021 12.27976681 26.50474275 12.29296875 29.1015625 C12.30845261 29.9017984 12.32393646 30.7020343 12.33988953 31.52651978 C12.3415623 37.13952074 11.36970583 41.34642315 7.5 45.6796875 C3.33333333 49 3.33333333 49 0 49 C0 32.83 0 16.66 0 0 Z " fill="#FBE7CA" transform="translate(434,353)"/>
<path d="M0 0 C5.28 0 10.56 0 16 0 C16 11.88 16 23.76 16 36 C11.71 36 7.42 36 3 36 C2.95101563 33.90398437 2.90203125 31.80796875 2.8515625 29.6484375 C2.79744561 27.60295905 2.74018048 25.55759106 2.68261719 23.51220703 C2.64449762 22.09822937 2.60961596 20.68416035 2.578125 19.27001953 C2.53210142 17.2291616 2.47417333 15.1889234 2.4140625 13.1484375 C2.3826416 11.92302246 2.3512207 10.69760742 2.31884766 9.43505859 C2.08439796 5.49588446 2.08439796 5.49588446 0 0 Z " fill="#F9E5C8" transform="translate(430,225)"/>
<path d="M0 0 C0.515625 0.66 1.03125 1.32 1.5625 2 C6.10875151 7.59538647 10.82308595 12.97996213 16 18 C15.43152344 18.4125 14.86304687 18.825 14.27734375 19.25 C9.35019382 22.93508042 5.26426132 26.69440729 1.41015625 31.49609375 C0.94480469 31.99238281 0.47945312 32.48867187 0 33 C-0.66 33 -1.32 33 -2 33 C-3.12235209 31.30906848 -4.17283773 29.57016439 -5.1875 27.8125 C-8.26723401 22.79175715 -10.96104107 19.982241 -16 17 C-13.87677791 14.75149462 -11.67877348 13.04648238 -9.125 11.3125 C-4.86514368 8.19227314 -2.44351319 4.62857787 0 0 Z " fill="#D1DA55" transform="translate(96,63)"/>
<path d="M0 0 C3.96 0 7.92 0 12 0 C12 11.88 12 23.76 12 36 C8.04 36 4.08 36 0 36 C0 24.12 0 12.24 0 0 Z " fill="#FCE8CB" transform="translate(434,268)"/>
<path d="M0 0 C3.96 0 7.92 0 12 0 C12 11.55 12 23.1 12 35 C8.04 35 4.08 35 0 35 C0 23.45 0 11.9 0 0 Z " fill="#FCE8CB" transform="translate(434,311)"/>
<path d="M0 0 C3.59634744 3.49359465 6.83451967 7.11098131 10 11 C7.03 13.64 4.06 16.28 1 19 C-2.45281166 17.84906278 -3.38082163 16.6794007 -5.6875 13.9375 C-6.31011719 13.20402344 -6.93273438 12.47054687 -7.57421875 11.71484375 C-8.04472656 11.14894531 -8.51523437 10.58304688 -9 10 C-8.2575 9.278125 -7.515 8.55625 -6.75 7.8125 C-4.30709485 5.31407427 -2.1318953 2.76356798 0 0 Z " fill="#CFD754" transform="translate(52,96)"/>
<path d="M0 0 C0.721875 0.7425 1.44375 1.485 2.1875 2.25 C4.90711047 5.01267269 4.90711047 5.01267269 7.8125 7.1875 C8.534375 7.785625 9.25625 8.38375 10 9 C10 9.66 10 10.32 10 11 C8.28515625 12.4375 8.28515625 12.4375 6.0625 14 C3.01367363 16.04816804 3.01367363 16.04816804 1 19 C-3.02627499 17.65790834 -3.75169153 15.51298199 -6 12 C-6.97860413 10.97905242 -7.97411403 9.97342589 -9 9 C-8.51789062 8.60167969 -8.03578125 8.20335937 -7.5390625 7.79296875 C-6.90742187 7.26316406 -6.27578125 6.73335937 -5.625 6.1875 C-4.99851562 5.66542969 -4.37203125 5.14335938 -3.7265625 4.60546875 C-1.7778952 2.91774261 -1.7778952 2.91774261 0 0 Z " fill="#D0D955" transform="translate(52,43)"/>
</svg>
